<?xml version="1.0" standalone="no"?>
<!DOCTYPE svg PUBLIC "-//W3C//DTD SVG 1.1//EN" "http://www.w3.org/Graphics/SVG/1.1/DTD/svg11.dtd" >
<svg xmlns="http://www.w3.org/2000/svg" xmlns:xlink="http://www.w3.org/1999/xlink" version="1.1">
<metadata>
Created by FontForge 20170731 at Sun Feb  8 15:09:55 2015
 By Aleksey,,,
2015 Iconian Fonts - www.iconian.com
</metadata>
<defs>
<font id="Battlefield" horiz-adv-x="882" >
  <font-face 
    font-family="Battlefield"
    font-weight="400"
    font-stretch="normal"
    units-per-em="1000"
    panose-1="0 0 0 0 0 0 0 0 0 0"
    ascent="800"
    descent="-200"
    x-height="526"
    cap-height="587"
    bbox="-72 -164 1439 713"
    underline-thickness="50"
    underline-position="-175"
    unicode-range="U+0020-2122"
  />
<missing-glyph horiz-adv-x="500" 
 />
    <glyph glyph-name=".notdef" horiz-adv-x="500" 
 />
    <glyph glyph-name=".null" horiz-adv-x="0" 
 />
    <glyph glyph-name="nonmarkingreturn" horiz-adv-x="500" 
 />
    <glyph glyph-name="space" unicode=" " horiz-adv-x="512" 
 />
    <glyph glyph-name="space" unicode="&#xa0;" horiz-adv-x="512" 
 />
    <glyph glyph-name="FL0021h" unicode="!" horiz-adv-x="276" 
d="M227 194v332h-178v-332h178zM227 141h-178v-141h178v141z" />
    <glyph glyph-name="FL0022h" unicode="&#x22;" horiz-adv-x="500" 
d="M451 526h-178v-234q45 0 78.5 9t55.5 23t33 31.5t11 35.5v135zM227 526h-178v-234q45 0 78.5 9t55.5 23t33 31.5t11 35.5v135z" />
    <glyph glyph-name="FL0023h" unicode="#" horiz-adv-x="890" 
d="M841 434v-141h-158v-61h158v-141h-158v-91h-178v91h-120v-91h-178v91h-158v141h158v61h-158v141h158v92h178v-92h120v92h178v-92h158zM505 293h-120v-61h120v61z" />
    <glyph glyph-name="FL0024h" unicode="$" 
d="M515 -100h-151v100h-315v141h315v53h-315v79q0 59 24.5 106t63.5 79.5t87 50t95 17.5h45v99h151v-99h318v-141h-318v-52h318v-80q0 -59 -25 -106t-64 -79.5t-87 -50t-94 -17.5h-48v-100zM635 194h-120v-53q42 2 72.5 14.5t47.5 38.5zM364 384q-40 -3 -70 -14.5t-47 -36.5
h117v51z" />
    <glyph glyph-name="FL0025h" unicode="%" horiz-adv-x="1008" 
d="M754 526l-332 -526h-170l333 526h169zM156 382v-32h103q19 0 33.5 1t23.5 6t13.5 16t4.5 32v31h-104q-19 0 -33 -1t-23 -6t-13.5 -16t-4.5 -31zM307 262h-258v136q0 30 12 53.5t31.5 40t43.5 25t47 8.5h258v-137q0 -29 -12 -52.5t-31.5 -40t-43.5 -25t-47 -8.5zM674 120
v-32h103q19 0 33.5 1t23.5 6t13.5 16t4.5 32v31h-104q-19 0 -33 -1t-23 -6t-13.5 -16t-4.5 -31zM825 0h-258v136q0 30 12 53.5t31.5 40t43.5 25t47 8.5h258v-137q0 -29 -12 -52.5t-31.5 -40t-43.5 -25t-47 -8.5z" />
    <glyph glyph-name="FL0026h" unicode="&#x26;" horiz-adv-x="902" 
d="M853 193h-70q3 -15 3 -30q0 -48 -26 -79.5t-64 -50t-82.5 -26t-81.5 -7.5h-229q-37 0 -81.5 7.5t-82.5 26t-64 50t-26 79.5q0 32 11 59.5t27 46.5q-16 17 -27 41.5t-11 52.5q0 48 18.5 79.5t51.5 50t80 26t104 7.5h247v-141h-239q-34 0 -44 -4.5t-10 -18.5v-9
q0 -10 5 -14.5t23 -6.5h568v-139zM286 193q-17 -2 -23 -6.5t-6 -15.5v-8q0 -12 9.5 -17t44.5 -5h213q35 0 44.5 5t9.5 17v8q0 11 -6 15.5t-23 6.5h-263z" />
    <glyph glyph-name="FL0027h" unicode="'" horiz-adv-x="276" 
d="M227 526h-178v-234q45 0 78.5 9t55.5 23t33 31.5t11 35.5v135z" />
    <glyph glyph-name="FL0028h" unicode="(" horiz-adv-x="513" 
d="M49 109v308q0 48 12 80t38.5 51.5t67 27.5t97.5 8h200v-141h-160q-34 0 -44 -4.5t-10 -18.5v-316q0 -12 9.5 -17t44.5 -5h160v-141h-200q-38 0 -76 8t-69 27.5t-50.5 52t-19.5 80.5z" />
    <glyph glyph-name="FL0029h" unicode=")" horiz-adv-x="513" 
d="M464 109v308q0 48 -12 80t-38.5 51.5t-67 27.5t-97.5 8h-200v-141h160q34 0 44 -4.5t10 -18.5v-316q0 -12 -9.5 -17t-44.5 -5h-160v-141h200q37 0 75.5 8t69.5 27.5t50.5 52t19.5 80.5z" />
    <glyph glyph-name="asterisk" unicode="*" horiz-adv-x="270" 
d="M157 408l-20 34l-18 -34l-85 51l45 26l-48 9l27 70l40 -18l-8 39h90l-12 -39l48 19l23 -71l-48 -9l43 -26z" />
    <glyph glyph-name="FL002Bh" unicode="+" horiz-adv-x="569" 
d="M214 26v166h-165v141h165v164h141v-164h165v-141h-165v-166h-141z" />
    <glyph glyph-name="FL002Ch" unicode="," horiz-adv-x="276" 
d="M227 141h-178v-234q45 0 78.5 9t55.5 23t33 31.5t11 35.5v135z" />
    <glyph glyph-name="FL002Dh" unicode="-" horiz-adv-x="569" 
d="M520 192v141h-471v-141h471z" />
    <glyph glyph-name="FL002Eh" unicode="." horiz-adv-x="276" 
d="M227 141h-178v-141h178v141z" />
    <glyph glyph-name="FL002Fh" unicode="/" horiz-adv-x="600" 
d="M551 526l-312 -526h-190l313 526h189z" />
    <glyph glyph-name="zero" unicode="0" 
d="M833 0h-516q-47 0 -94.5 17.5t-86 50t-63 79.5t-24.5 106v273h517q49 0 97 -17.5t86 -50t61 -79.5t23 -106v-273zM655 252q0 40 -12 66t-34 41t-53 20.5t-70 5.5h-259v-111q0 -41 12 -66.5t34 -40.5t53 -20.5t70 -5.5h259v111z" />
    <glyph glyph-name="FL0031h" unicode="1" horiz-adv-x="342" 
d="M49 526h244v-526h-177v385h-67v141z" />
    <glyph glyph-name="two" unicode="2" 
d="M833 273v-79h-586v-53h586v-141h-784v333h586q-20 30 -58.5 41t-90.5 11h-437v141h514q46 0 94 -17.5t87 -50t64 -79.5t25 -106z" />
    <glyph glyph-name="three" unicode="3" 
d="M49 194v139h585q-21 31 -57.5 41.5t-90.5 10.5h-437v141h516q57 0 106 -17.5t85 -50t56.5 -79.5t20.5 -106v-273h-784v140h606v54h-606z" />
    <glyph glyph-name="four" unicode="4" 
d="M655 525h178v-525h-178v189h-606v336h178v-198h428v198zM355 587h171v-138h-171v138z" />
    <glyph glyph-name="five" unicode="5" 
d="M49 194h586q-20 -31 -58.5 -42t-90.5 -11h-437v-141h514q46 0 94 17.5t87 50t64 79.5t25 106v80h-586v52h586v141h-784v-332z" />
    <glyph glyph-name="FL0036h" unicode="6" 
d="M49 0v273q0 59 24.5 106t63.5 79.5t87 50t95 17.5h514v-141h-437q-52 0 -90.5 -11t-58.5 -41h586v-80q0 -59 -25 -106t-64 -79.5t-87 -50t-94 -17.5h-514zM635 194h-408v-53h259q52 0 90.5 11t58.5 42z" />
    <glyph glyph-name="FL0037h" unicode="7" 
d="M655 385v-385h178v526h-516q-47 0 -94.5 -14t-86 -41t-63 -66.5t-24.5 -89.5h189q6 26 20 40.5t35 21t47 7.5t56 1h259z" />
    <glyph glyph-name="FL0038h" unicode="8" horiz-adv-x="868" 
d="M49 161q0 16 1 32.5t5.5 31t12.5 26t23 18.5q-14 3 -22 13t-12.5 24t-6 29.5t-1.5 29.5q0 48 18.5 79t51.5 49.5t80 25.5t104 7h262q57 0 104 -7t80 -25.5t51.5 -49.5t18.5 -79q0 -28 -6 -52t-36 -44q15 -6 23.5 -17.5t12.5 -26t5 -31.5t1 -33q0 -48 -26 -79t-64 -49.5
t-82.5 -25.5t-81.5 -7h-262q-37 0 -81.5 7t-82.5 25.5t-64 49.5t-26 79zM557 385h-246q-34 0 -44 -4.5t-10 -18.5v-9q0 -10 5 -14.5t23 -6.5h298q18 2 23 6.5t5 14.5v9q0 14 -10 18.5t-44 4.5zM582 193h-296q-17 -2 -23 -6.5t-6 -15.5v-8q0 -12 9.5 -17t44.5 -5h246
q35 0 44.5 5t9.5 17v8q0 11 -6 15.5t-23 6.5z" />
    <glyph glyph-name="FL0039h" unicode="9" 
d="M49 194v79q0 59 24.5 106t63.5 79.5t87 50t95 17.5h514v-273q0 -59 -25 -106t-64 -79.5t-87 -50t-94 -17.5h-514v141h437q52 0 90.5 11t58.5 42h-586zM396 385q-52 0 -90.5 -11t-58.5 -41h408v52h-259z" />
    <glyph glyph-name="FL003Ah" unicode=":" horiz-adv-x="276" 
d="M227 141h-178v-141h178v141zM227 385h-178v-141h178v141z" />
    <glyph glyph-name="FL003Bh" unicode=";" horiz-adv-x="276" 
d="M227 385h-178v-141h178v141zM227 141h-178v-234q45 0 78.5 9t55.5 23t33 31.5t11 35.5v135z" />
    <glyph glyph-name="FL003Ch" unicode="&#x3c;" horiz-adv-x="390" 
d="M366 0h-190l-152 262l152 264h190l-155 -264z" />
    <glyph glyph-name="FL003Dh" unicode="=" horiz-adv-x="600" 
d="M551 293v141h-502v-141h502zM551 91v141h-502v-141h502z" />
    <glyph glyph-name="FL003Eh" unicode="&#x3e;" horiz-adv-x="390" 
d="M24 0h190l152 262l-152 264h-190l155 -264z" />
    <glyph glyph-name="FL003Fh" unicode="?" 
d="M833 194v79q0 59 -25 106t-64 79.5t-87 50t-94 17.5h-514v-141h437q52 0 90.5 -11t58.5 -41h-388v-139h586zM425 141h-178v-141h178v141z" />
    <glyph glyph-name="FL0040h" unicode="@" horiz-adv-x="984" 
d="M935 299q0 -48 -19.5 -80.5t-50.5 -52t-69.5 -27.5t-75.5 -8h-424v137q0 30 12 53.5t31.5 40.5t43.5 26t47 9h258v-147q35 0 46 5t11 17v174h-449q-34 0 -45.5 -4.5t-11.5 -18.5v-344h550v-138h-740v476q0 48 12 80t38.5 51.5t67 27.5t97.5 8h671v-285zM403 219h103
q19 0 33.5 1.5t23.5 7t13.5 17t4.5 32.5v31h-104q-19 0 -33 -1.5t-23 -7t-13.5 -17t-4.5 -31.5v-32z" />
    <glyph glyph-name="A" unicode="A" 
d="M49 0h178v125h428v-125h178v526h-516q-57 0 -106 -17.5t-85 -50t-56.5 -79.5t-20.5 -106v-273zM402 385h253v-122h-428q1 38 14.5 62t36.5 37.5t54.5 18t69.5 4.5z" />
    <glyph glyph-name="B" unicode="B" horiz-adv-x="868" 
d="M819 161q0 32 -8 62t-34 46q26 15 34 41.5t8 54.5q0 48 -18.5 79t-51.5 49.5t-80 25.5t-104 7h-516v-526h516q37 0 81.5 7t82.5 25.5t64 49.5t26 79zM227 141v244h330q34 0 44 -4.5t10 -18.5v-8q0 -10 -5 -14.5t-23 -6.5h-264v-139h263q17 -2 23 -6.5t6 -15.5v-9
q0 -13 -12 -17.5t-42 -4.5h-330z" />
    <glyph glyph-name="C" unicode="C" 
d="M49 526h784v-140h-606v-112q0 -41 12 -66.5t34 -40.5t53 -20.5t70 -5.5h437v-141h-516q-57 0 -106 17.5t-85 50t-56.5 79.5t-20.5 106v273z" />
    <glyph glyph-name="D" unicode="D" 
d="M227 137v176h-178v-313h784v273q0 59 -22 106t-59 79.5t-85.5 50t-101.5 17.5h-516v-138h437q39 0 70 -6t53 -21t34 -41t12 -66v-117h-428z" />
    <glyph glyph-name="E" unicode="E" horiz-adv-x="868" 
d="M311 141q-30 0 -42 4.5t-12 17.5v9q0 11 6 15.5t23 6.5h299v139h-300q-18 2 -23 6.5t-5 14.5v8q0 13 11.5 18t42.5 5h508v141h-516q-57 0 -104 -7.5t-80 -26t-51.5 -50t-18.5 -79.5q0 -28 6 -53.5t35 -40.5q-22 -20 -31.5 -47t-9.5 -59q0 -48 26 -79.5t64 -50t82.5 -26
t81.5 -7.5h516v141h-508z" />
    <glyph glyph-name="F" unicode="F" horiz-adv-x="868" 
d="M259 0v194h326v139h-326v29q0 13 11.5 18t42.5 5h506v141h-516q-57 0 -104 -8t-80 -27.5t-51.5 -51.5t-18.5 -80v-359h210z" />
    <glyph glyph-name="G" unicode="G" 
d="M655 137v44h-293v139h471v-320h-784v273q0 59 22 106t59 79.5t85.5 50t101.5 17.5h516v-138h-437q-39 0 -70 -6t-53 -21t-34 -41t-12 -66v-117h428z" />
    <glyph glyph-name="H" unicode="H" 
d="M655 526h178v-526h-178v189h-428v-189h-178v526h178v-199h428v199zM355 587h171v-138h-171v138z" />
    <glyph glyph-name="I" unicode="I" horiz-adv-x="276" 
d="M49 0v389h178v-389h-178zM49 587h178v-138h-178v138z" />
    <glyph glyph-name="J" unicode="J" 
d="M396 141q-30 0 -56 1t-47 7.5t-35 21t-20 40.5h-189q0 -50 24.5 -89.5t63 -66.5t86 -41t94.5 -14h516v526h-178v-385h-259zM527 587h-171v-138h171v138z" />
    <glyph glyph-name="K" unicode="K" horiz-adv-x="883" 
d="M227 0h-178v526h178v-199h264l127 199h189l-126 -198q27 0 54.5 -10t49.5 -27.5t35.5 -42t13.5 -52.5v-196h-177v111q0 32 -26 55t-66 23h-338v-189zM335 587h171v-138h-171v138z" />
    <glyph glyph-name="L" unicode="L" 
d="M486 141q30 0 56 1t47 7.5t35 21t20 40.5h189q0 -50 -24.5 -89.5t-63 -66.5t-86.5 -41t-94 -14h-516v526h178v-385h259zM355 587h171v-138h-171v138z" />
    <glyph glyph-name="M" unicode="M" horiz-adv-x="1050" 
d="M546 329h-178v-329h178v329zM227 386h348q43 0 66.5 -19t37.5 -42l160 -325h188l-203 431q-8 18 -24.5 35t-38.5 30.5t-47 21.5t-50 8h-615v-526h178v386z" />
    <glyph glyph-name="N" unicode="N" 
d="M201 526q10 0 40.5 -11.5t72.5 -32t91 -48t96 -59.5t87.5 -66.5t66.5 -69.5v287h178v-526h-153q-27 32 -63 67.5t-77.5 71t-85 68t-85 59t-78 43.5t-64.5 21v-330h-178v526h152z" />
    <glyph glyph-name="O" unicode="O" 
d="M49 0h516q46 0 94 17.5t86.5 50t63 79.5t24.5 106v273h-516q-47 0 -94.5 -17.5t-86 -50t-63 -79.5t-24.5 -106v-273zM227 252q0 40 12 66t34 40.5t53 20t70 5.5h259v-110q0 -41 -12 -67t-34 -41t-53 -20.5t-70 -5.5h-259v112z" />
    <glyph glyph-name="P" unicode="P" 
d="M227 0v385h428q0 -41 -11 -64.5t-32.5 -36t-53 -16t-72.5 -3.5h-167v-140h246q52 0 100 16.5t85.5 47.5t60 75.5t22.5 100.5v161h-784v-526h178z" />
    <glyph glyph-name="Q" unicode="Q" 
d="M534 -101v101h31q46 0 94 17.5t86.5 50t63 79.5t24.5 106v273h-516q-47 0 -94.5 -17.5t-86 -50t-63 -79.5t-24.5 -106v-273h308v-101h177zM227 140v112q0 40 12 66t34 40.5t53 20t70 5.5h259v-110q0 -68 -32.5 -97t-88.5 -35v126h-177v-128h-130z" />
    <glyph glyph-name="R" unicode="R" 
d="M49 0h178v385h428q0 -41 -11 -64.5t-32.5 -36t-53 -16t-72.5 -3.5h-167v-140h135l126 -125h201l-134 135q35 8 68.5 28t59.5 50t42 68.5t16 83.5v161h-784v-526z" />
    <glyph glyph-name="FL0053h" unicode="S" 
d="M49 141v-141h516q46 0 94 17.5t86.5 50t63 79.5t24.5 106v81h-178v-60q0 -41 -12 -66.5t-34 -40.5t-53 -20.5t-70 -5.5h-437zM49 273v-80h178v59q0 40 12 66t34 41t53 20.5t70 5.5h437v141h-516q-47 0 -94.5 -17.5t-86 -50t-63 -79.5t-24.5 -106z" />
    <glyph glyph-name="T" unicode="T" horiz-adv-x="883" 
d="M233 259q0 33 10 55t28 35.5t42.5 21t53.5 11.5v-382h177v385h290v141h-519q-47 0 -94 -17.5t-85.5 -50t-62.5 -79.5t-24 -106v-14h184z" />
    <glyph glyph-name="U" unicode="U" 
d="M402 141q-38 0 -70 5t-55.5 18.5t-36.5 37.5t-13 62v262h-178v-273q0 -59 20.5 -106t56.5 -79.5t85 -50t106 -17.5h516v526h-178v-385h-253zM527 587h-171v-138h171v138z" />
    <glyph glyph-name="V" unicode="V" horiz-adv-x="834" 
d="M810 526l-309 -526h-164l-313 526h190l204 -351l202 351h190zM330 587h171v-138h-171v138z" />
    <glyph glyph-name="w" unicode="W" horiz-adv-x="1075" 
d="M529 197h178v329h-178v-329zM848 140h-348q-44 0 -67 18.5t-37 42.5l-160 325h-188l203 -431q8 -18 24.5 -35t38 -30.5t46.5 -21.5t51 -8h615v526h-178v-386z" />
    <glyph glyph-name="X" unicode="X" horiz-adv-x="884" 
d="M492 331l127 195h189l-126 -198q27 0 54.5 -10t49.5 -27.5t35.5 -42t13.5 -52.5v-196h-177v115q0 32 -25.5 55t-65.5 23h-175l-127 -193h-189l126 197q-27 0 -54.5 10t-49.5 27t-35.5 41t-13.5 53v198h177v-117q0 -32 26 -55t66 -23h174zM335 587h171v-138h-171v138z" />
    <glyph glyph-name="Y" unicode="Y" 
d="M480 319q38 0 70 5t55.5 19t36.5 38.5t13 62.5v82h178v-91q0 -59 -20.5 -105.5t-56.5 -79.5t-85 -50.5t-106 -17.5h-36v-182h-178v182h-34q-57 0 -106 17.5t-85 50.5t-56.5 79.5t-20.5 105.5v91h178v-82q0 -38 13 -62.5t36.5 -38.5t55.5 -19t70 -5h78zM355 587h171v-138
h-171v138z" />
    <glyph glyph-name="Z" unicode="Z" 
d="M833 274v-80h-586q20 -31 58.5 -42t90.5 -11h437v-141h-514q-47 0 -95 17.5t-87 50.5t-63.5 80t-24.5 106v79h586q-20 30 -58.5 41t-90.5 11h-437v141h514q46 0 94 -17.5t87 -50t64 -79.5t25 -105z" />
    <glyph glyph-name="FL005Bh" unicode="[" horiz-adv-x="513" 
d="M49 -59v643h415v-141h-214v-361h214v-141h-415z" />
    <glyph glyph-name="FL005Ch" unicode="\" horiz-adv-x="550" 
d="M24 526l312 -526h190l-313 526h-189z" />
    <glyph glyph-name="FL005Dh" unicode="]" horiz-adv-x="513" 
d="M464 -59v643h-415v-141h214v-361h-214v-141h415z" />
    <glyph glyph-name="FL005Eh" unicode="^" horiz-adv-x="834" 
d="M24 0l309 526h164l313 -526h-190l-204 351l-202 -351h-190z" />
    <glyph glyph-name="FL005Fh" unicode="_" horiz-adv-x="734" 
d="M685 0v86h-636v-86h636z" />
    <glyph glyph-name="FL0060h" unicode="`" horiz-adv-x="288" 
d="M24 586h148l92 -132h-98z" />
    <glyph glyph-name="a" unicode="a" 
d="M655 385h-253q-38 0 -69.5 -4.5t-54.5 -18t-36.5 -37.5t-14.5 -62h428v122zM227 0h-178v273q0 59 20.5 106t56.5 79.5t85 50t106 17.5h516v-526h-178v125h-428v-125z" />
    <glyph glyph-name="b" unicode="b" horiz-adv-x="868" 
d="M819 161q0 16 -1 32t-5.5 30t-12.5 26t-23 20q26 20 34 44t8 52v161h-770v-526h516q37 0 81.5 7t82.5 25.5t64 49.5t26 79zM227 141v244h384v-31q0 -10 -5 -14.5t-23 -6.5h-264v-139h263q17 -2 23 -6.5t6 -15.5v-9q0 -13 -12 -17.5t-42 -4.5h-330z" />
    <glyph glyph-name="c" unicode="c" 
d="M49 0h784v140h-606v112q0 40 12 66t34 41t53 20.5t70 5.5h437v141h-516q-57 0 -106 -17.5t-85 -50t-56.5 -79.5t-20.5 -106v-273z" />
    <glyph glyph-name="d" unicode="d" 
d="M833 253v273h-784v-140h606v-112q0 -41 -12 -66.5t-34 -40.5t-53 -20.5t-70 -5.5h-259v172h-178v-313h516q57 0 106 17.5t85 50t56.5 79.5t20.5 106z" />
    <glyph glyph-name="e" unicode="e" 
d="M833 194v139h-585q21 31 57.5 41.5t90.5 10.5h437v141h-517q-57 0 -106 -17.5t-84.5 -50t-56 -79.5t-20.5 -106v-273h784v140h-606v54h606z" />
    <glyph glyph-name="f" unicode="f" 
d="M833 193v139h-585q21 31 57.5 42t90.5 11h437v141h-516q-57 0 -106 -17.5t-85 -50t-56.5 -79.5t-20.5 -106v-273h178v193h606z" />
    <glyph glyph-name="g" unicode="g" 
d="M655 137v149h178v-286h-784v273q0 59 22 106t59 79.5t85.5 50t101.5 17.5h516v-138h-437q-39 0 -70 -6t-53 -21t-34 -41t-12 -66v-117h428z" />
    <glyph glyph-name="h" unicode="h" 
d="M655 526h178v-526h-178v189h-428v-189h-178v526h178v-199h428v199z" />
    <glyph glyph-name="i" unicode="i" horiz-adv-x="277" 
d="M228 0h-179v526h179v-526z" />
    <glyph glyph-name="j" unicode="j" 
d="M655 141v385h178v-526h-516q-47 0 -94.5 14t-86 41t-63 66.5t-24.5 89.5h189q6 -26 20 -40.5t35 -21t47 -7.5t56 -1h259z" />
    <glyph glyph-name="k" unicode="k" horiz-adv-x="883" 
d="M227 0h-178v526h178v-199h264l127 199h189l-126 -198q27 0 54.5 -10t49.5 -27.5t35.5 -42t13.5 -52.5v-196h-177v111q0 32 -26 55t-66 23h-338v-189z" />
    <glyph glyph-name="l" unicode="l" 
d="M227 141v385h-178v-526h516q46 0 94 14t86.5 41t63 66.5t24.5 89.5h-189q-6 -26 -20 -40.5t-35 -21t-47 -7.5t-56 -1h-259z" />
    <glyph glyph-name="m" unicode="m" horiz-adv-x="1050" 
d="M504 329h178v-329h-178v329zM823 386h-348q-44 0 -67 -18.5t-37 -42.5l-160 -325h-188l203 431q8 18 24.5 35t38 30.5t46.5 21.5t51 8h615v-526h-178v386z" />
    <glyph glyph-name="n" unicode="n" 
d="M201 526q10 0 40.5 -11.5t72.5 -32t91 -48t96 -59.5t87.5 -66.5t66.5 -69.5v287h178v-526h-153q-27 32 -63 67.5t-77.5 71t-85 68t-85 59t-78 43.5t-64.5 21v-330h-178v526h152z" />
    <glyph glyph-name="o" unicode="o" 
d="M227 252v-112h259q39 0 70 5.5t53 20.5t34 41t12 67v110h-259q-39 0 -70 -5.5t-53 -20t-34 -40.5t-12 -66zM565 0h-516v273q0 59 24.5 106t63 79.5t86 50t94.5 17.5h516v-273q0 -59 -24.5 -106t-63 -79.5t-86.5 -50t-94 -17.5z" />
    <glyph glyph-name="p" unicode="p" 
d="M227 0v385h428q0 -41 -11.5 -64.5t-33.5 -36t-53 -16t-71 -3.5h-167v-140h246q52 0 100 16.5t85.5 47.5t60 75.5t22.5 100.5v161h-784v-526h178z" />
    <glyph glyph-name="q" unicode="q" 
d="M565 0q46 0 94 17.5t86.5 50t63 79.5t24.5 106v273h-516q-47 0 -94.5 -17.5t-86 -50t-63 -79.5t-24.5 -106v-273h516zM227 140v112q0 40 12 66t34 40.5t53 20t70 5.5h259v-110q0 -68 -32.5 -97t-88.5 -35v126h-177v-128h-130z" />
    <glyph glyph-name="r" unicode="r" 
d="M49 0h178v385h428q0 -41 -12 -64.5t-34 -36t-53 -16t-70 -3.5h-167v-140h134l127 -125h201l-134 135q35 8 68.5 28t59.5 50t42 68.5t16 83.5v161h-784v-526z" />
    <glyph glyph-name="s" unicode="s" 
d="M49 273v-79h586q-20 -31 -58.5 -42t-90.5 -11h-437v-141h514q46 0 94 17.5t87 50t64 79.5t25 106v80h-586q20 30 58.5 41t90.5 11h437v141h-514q-47 0 -95 -17.5t-87 -50t-63.5 -79.5t-24.5 -106z" />
    <glyph glyph-name="t" unicode="t" 
d="M411 0q-21 0 -43.5 13.5t-42 34.5t-32 45.5t-12.5 45.5v246h-232v141h784v-141h-374v-195q0 -22 17.5 -36.5t35.5 -14.5h107v-139h-208z" />
    <glyph glyph-name="u" unicode="u" 
d="M402 141h253v385h178v-526h-516q-57 0 -106 17.5t-85 50t-56.5 79.5t-20.5 106v273h178v-262q0 -38 13 -62t36.5 -37.5t55.5 -18.5t70 -5z" />
    <glyph glyph-name="v" unicode="v" horiz-adv-x="834" 
d="M810 526l-309 -526h-164l-313 526h190l204 -351l202 351h190z" />
    <glyph glyph-name="W" unicode="w" horiz-adv-x="1050" 
d="M546 197h-178v329h178v-329zM227 140h348q43 0 66.5 19t37.5 42l160 325h188l-203 -431q-8 -18 -24.5 -35t-38.5 -30.5t-47 -21.5t-50 -8h-615v526h178v-386z" />
    <glyph glyph-name="x" unicode="x" horiz-adv-x="884" 
d="M318 331q-40 0 -66 23t-26 55v117h-177v-198q0 -29 13.5 -53t35.5 -41t49.5 -27t54.5 -10l-126 -197h189l127 193h175q40 0 65.5 -23t25.5 -55v-115h177v196q0 28 -13.5 52.5t-35.5 42t-49.5 27.5t-54.5 10l126 198h-189l-127 -195h-174z" />
    <glyph glyph-name="y" unicode="y" 
d="M480 319q38 0 70 5t55.5 19t36.5 38.5t13 62.5v82h178v-91q0 -59 -20.5 -105.5t-56.5 -79.5t-85 -50.5t-106 -17.5h-36v-182h-178v182h-34q-57 0 -106 17.5t-85 50.5t-56.5 79.5t-20.5 105.5v91h178v-82q0 -38 13 -62.5t36.5 -38.5t55.5 -19t70 -5h78z" />
    <glyph glyph-name="z" unicode="z" 
d="M833 193h-586q20 -31 58.5 -41.5t90.5 -10.5h437v-141h-514q-47 0 -95 17.5t-87 50t-63.5 79.5t-24.5 106v81h586v51h-586v141h784v-333z" />
    <glyph glyph-name="FL007Bh" unicode="{" horiz-adv-x="665" 
d="M201 417q0 48 12 80t38.5 51.5t67 27.5t97.5 8h200v-141h-160q-34 0 -44 -4.5t-10 -18.5v-316q0 -12 9.5 -17t44.5 -5h160v-141h-200q-38 0 -76 8t-69 27.5t-50.5 52t-19.5 80.5v83h-152v141h152v84z" />
    <glyph glyph-name="FL007Ch" unicode="|" horiz-adv-x="276" 
d="M227 -100h-178v725h178v-725z" />
    <glyph glyph-name="FL007Dh" unicode="}" horiz-adv-x="665" 
d="M464 417q0 48 -12 80t-38.5 51.5t-67 27.5t-97.5 8h-200v-141h160q34 0 44 -4.5t10 -18.5v-316q0 -12 -9.5 -17t-44.5 -5h-160v-141h200q37 0 75.5 8t69.5 27.5t50.5 52t19.5 80.5v83h152v141h-152v84z" />
    <glyph glyph-name="FL007Eh" unicode="~" horiz-adv-x="516" 
d="M317 256l61 75h114l-115 -134h-121l-61 75l-62 -75h-109l110 134h122z" />
    <glyph glyph-name="FL007Fh" horiz-adv-x="267" 
 />
    <glyph glyph-name="FL00A1h" unicode="&#xa1;" horiz-adv-x="276" 
d="M49 332v-332h178v332h-178zM49 385h178v141h-178v-141z" />
    <glyph glyph-name="FL00A2h" unicode="&#xa2;" 
d="M572 -100h-151v100h-372v273q0 59 20.5 106t56.5 79.5t85 50t106 17.5h104v99h151v-99h261v-141h-261v-245h261v-140h-261v-100zM227 252v-112h194v245h-25q-39 0 -70 -5.5t-53 -20.5t-34 -41t-12 -66z" />
    <glyph glyph-name="FL00A3h" unicode="&#xa3;" horiz-adv-x="917" 
d="M444 141h424v-141h-819v141h135l-1.5 7.5t-0.5 3.5v13v14q0 13 1 14h-134v141h134q-1 1 -1 13v14q0 48 18.5 80t51.5 50.5t80 26.5t104 8h114v-141h-106q-31 0 -42.5 -5t-11.5 -18v-7q0 -10 4.5 -14.5t21.5 -6.5h279v-141h-278q-16 -2 -21.5 -6.5t-5.5 -15.5v-8
q0 -13 12 -17.5t42 -4.5z" />
    <glyph glyph-name="FL00ADh" unicode="&#xa4;" horiz-adv-x="884" 
d="M835 0h-190l-59 102l-60 -102h-164l-62 104l-61 -104h-190l156 262l-156 263h190l61 -105l62 105h164l60 -102l59 102h190l-155 -263zM443 350l-51 -88l51 -87l50 87z" />
    <glyph glyph-name="FL00A5h" unicode="&#xa5;" 
d="M96 132v77h91q-63 29 -100.5 87t-37.5 139v91h178v-82q0 -38 13 -62.5t36.5 -38t55.5 -18.5t70 -5h78q38 0 70 5t55.5 18.5t36.5 38t13 62.5v82h178v-91q0 -81 -38 -139t-101 -87h90v-77h-255v-26h255v-77h-255v-29h-178v29h-255v77h255v26h-255z" />
    <glyph glyph-name="FL00A6h" unicode="&#xa6;" horiz-adv-x="276" 
d="M49 -100v339h178v-339h-178zM227 296h-178v329h178v-329z" />
    <glyph glyph-name="FL00A7h" unicode="&#xa7;" 
d="M49 325q0 59 24.5 106t63.5 79.5t87 50t95 17.5h514v-141h-437q-52 0 -90.5 -10.5t-58.5 -40.5h586v-81q0 -62 -29 -112h29v-81q0 -59 -25 -106t-64 -79.5t-87 -50t-94 -17.5h-514v141h437q52 0 90.5 10.5t58.5 41.5h-586v80q0 64 28 113h-28v80zM399 245l-3 -1
q-52 0 -90.5 -10.5t-58.5 -40.5h254q48 0 81.5 11.5t52.5 40.5h-236z" />
    <glyph glyph-name="FL00A8h" unicode="&#xa8;" horiz-adv-x="408" 
d="M49 587v-104h122v104h-122zM237 587v-104h122v104h-122z" />
    <glyph glyph-name="FL00A9h" unicode="&#xa9;" horiz-adv-x="281" 
d="M141 585q2 0 12 -1.5t31 -9.5q14 -9 21.5 -17t12.5 -18q14 -23 14 -45q0 -10 -4 -21t-10 -24q-8 -14 -29 -29.5t-48 -15.5q-11 0 -23 3.5t-23 8.5q-12 9 -18 15t-15 18q-13 22 -13 45q0 18 7.5 34.5t20.5 29t29.5 20t34.5 7.5zM141 571q-43 0 -66 -38q-10 -16 -10 -39
q0 -20 10 -36q8 -17 27 -29q10 -6 21 -8t16 -2h2q18 0 37 10q17 10 28 29t11 36v4q0 13 -6.5 26.5t-16.5 23.5t-23.5 16.5t-26.5 6.5h-3zM170 481l14 -5q-9 -34 -43 -34q-48 0 -48 52t48 52q34 0 41 -28l-15 -4q-9 19 -26 19q-32 0 -32 -39q0 -36 31 -36q22 0 30 23z" />
    <glyph glyph-name="FL00AAh" unicode="&#xaa;" 
d="M833 0h-178v124h-428v-124h-178v526h516q57 0 106 -17.5t85 -50t56.5 -79.5t20.5 -106v-273zM480 385h-253v-121h428q-1 38 -14.5 62t-36.5 37t-55 17.5t-69 4.5z" />
    <glyph glyph-name="FL00ABh" unicode="&#xab;" horiz-adv-x="406" 
d="M357 201v-109l-131 110v120l131 110v-109l-74 -61zM180 201v-109l-131 110v120l131 110v-109l-74 -61z" />
    <glyph glyph-name="FL00ACh" unicode="&#xac;" horiz-adv-x="569" 
d="M379 26v166h-330v141h471v-307h-141z" />
    <glyph glyph-name="FL00AEh" unicode="&#xad;" horiz-adv-x="469" 
d="M420 192v141h-371v-141h371z" />
    <glyph glyph-name="FL00B2h" unicode="&#xae;" horiz-adv-x="281" 
d="M141 585q24 0 43 -13q21 -10 34.5 -33.5t13.5 -44.5q0 -10 -4 -21.5t-11 -24.5q-4 -10 -13.5 -18t-20.5 -14t-22 -9t-18 -3h-2q-51 0 -80 44q-12 21 -12 46q0 19 7.5 36t20.5 29t29 19t33 7h2zM141 570q-43 0 -66 -38q-11 -20 -11 -38v-1q0 -3 1.5 -12.5t8.5 -23.5
q0 -4 7 -10.5t17 -12.5t21 -10.5t19 -4.5h3q18 0 36.5 10.5t27.5 27.5q7 14 9.5 25.5l2.5 11.5l-1 3q0 14 -6 27t-16.5 23.5t-23.5 16.5t-26 6h-3zM101 444v98h32q21 0 26 -5q4 -2 6.5 -3.5t4.5 -3.5q6 -9 6 -14q0 -26 -29 -28q8 -4 11.5 -8.5t11.5 -16.5l12 -19h-20l-7 16
q-14 19 -18 21q-4 4 -11 4h-10v-41h-15zM116 497h19q14 0 19 4.5t5 12.5t-10 14h-33v-31z" />
    <glyph glyph-name="FL00AFh" unicode="&#xaf;" horiz-adv-x="734" 
d="M685 439v86h-636v-86h636z" />
    <glyph glyph-name="FL00B0h" unicode="&#xb0;" horiz-adv-x="220" 
d="M49 587v-104h122v104h-122zM92 522v27h36v-27h-36z" />
    <glyph glyph-name="FL00B1h" unicode="&#xb1;" horiz-adv-x="569" 
d="M214 169v111h-165v131h165v114h141v-114h165v-131h-165v-111h-141zM520 0h-471v131h471v-131z" />
    <glyph glyph-name="FL00B3h" unicode="&#xb2;" horiz-adv-x="490" 
d="M49 322h392v84h-275v14h275v38q0 30 -12 53.5t-31.5 40t-43.5 25t-47 8.5h-258v-85h213q23 0 38.5 -2.5t24.5 -11.5h-276v-164z" />
    <glyph glyph-name="FL00B5h" unicode="&#xb3;" horiz-adv-x="490" 
d="M49 322v84h276v14h-276v66h276q-9 9 -24.5 11.5t-38.5 2.5h-213v85h258q23 0 47 -8.5t43.5 -25t31.5 -40t12 -53.5v-136h-392z" />
    <glyph glyph-name="FL00B4h" unicode="&#xb4;" horiz-adv-x="288" 
d="M264 586h-148l-92 -132h98z" />
    <glyph glyph-name="cedilla" unicode="&#xb5;" 
d="M402 141q-38 0 -70 5t-55.5 18.5t-36.5 37.5t-13 62v262h-178v-273q0 -59 20.5 -106t56.5 -79.5t85 -50t106 -17.5h248q57 0 106 17.5t85 50t56.5 79.5t20.5 106v273h-178v-262q0 -38 -13 -62t-36.5 -37.5t-55.5 -18.5t-70 -5h-78z" />
    <glyph glyph-name="FL00B6h" unicode="&#xb6;" 
d="M319 -155v280h-2q-52 0 -100 16.5t-85.5 47.5t-60 75.5t-22.5 100.5v161h784v-681h-178v540h-159v-540h-177z" />
    <glyph glyph-name="FL00B7h" unicode="&#xb7;" horiz-adv-x="275" 
d="M226 192v141h-177v-141h177z" />
    <glyph glyph-name="FL00B8h" unicode="&#xb8;" horiz-adv-x="216" 
d="M167 -164h-239v112h127v54h112v-166z" />
    <glyph glyph-name="FL00B9h" unicode="&#xb9;" horiz-adv-x="252" 
d="M49 585h154v-264h-106v177h-48v87z" />
    <glyph glyph-name="FL00BAh" unicode="&#xba;" horiz-adv-x="490" 
d="M154 442v-34h107q19 0 33.5 1t23.5 6.5t13.5 17t4.5 32.5v33h-108q-19 0 -33 -1t-23 -6.5t-13.5 -17t-4.5 -31.5zM307 322h-258v136q0 30 12 53.5t31.5 40t43.5 25t47 8.5h258v-137q0 -29 -12 -52.5t-31.5 -40t-43.5 -25t-47 -8.5z" />
    <glyph glyph-name="FL00BBh" unicode="&#xbb;" horiz-adv-x="406" 
d="M49 201v-109l131 110v120l-131 110v-109l74 -61zM226 201v-109l131 110v120l-131 110v-109l74 -61z" />
    <glyph glyph-name="FL00BCh" unicode="&#xbc;" horiz-adv-x="891" 
d="M582 526l-332 -526h-170l333 526h169zM49 525h154v-264h-106v177h-48v87zM725 264h117v-264h-117v84h-276v180h118v-101h158v101z" />
    <glyph glyph-name="FL00BDh" unicode="&#xbd;" horiz-adv-x="890" 
d="M841 0h-392v164h276q-9 9 -24.5 11.5t-38.5 2.5h-213v85h258q23 0 47 -8.5t43.5 -25t31.5 -40t12 -53.5v-38h-275v-14h275v-84zM582 526l-332 -526h-170l333 526h169zM49 525h154v-264h-106v177h-48v87z" />
    <glyph glyph-name="FL00BEh" unicode="&#xbe;" horiz-adv-x="1126" 
d="M817 526l-332 -526h-170l333 526h169zM960 264h117v-264h-117v84h-276v180h118v-101h158v101zM49 262v84h276v14h-276v66h276q-9 9 -24.5 11.5t-38.5 2.5h-213v85h258q23 0 47 -8.5t43.5 -25t31.5 -40t12 -53.5v-136h-392z" />
    <glyph glyph-name="FL00BFh" unicode="&#xbf;" 
d="M49 333v-80q0 -59 25 -106t64 -79.5t87 -50t94 -17.5h514v141h-437q-52 0 -90.5 10.5t-58.5 40.5h388v141h-586zM457 385h178v141h-178v-141z" />
    <glyph glyph-name="FL00C0h" unicode="&#xc0;" 
d="M312 712h148l92 -132h-98zM655 385h-253q-38 0 -69.5 -4.5t-54.5 -17.5t-36.5 -37t-14.5 -62h428v121zM227 0h-178v273q0 59 20.5 106t56.5 79.5t85 50t106 17.5h516v-526h-178v124h-428v-124z" />
    <glyph glyph-name="FL00C1h" unicode="&#xc1;" 
d="M502 581h-98l92 132h148zM655 385h-253q-38 0 -69.5 -4.5t-54.5 -17.5t-36.5 -37t-14.5 -62h428v121zM227 0h-178v273q0 59 20.5 106t56.5 79.5t85 50t106 17.5h516v-526h-178v124h-428v-124z" />
    <glyph glyph-name="FL00C2h" unicode="&#xc2;" 
d="M527 579l-61 73l-61 -73h-109l110 131h120l110 -131h-109zM655 385h-253q-38 0 -69.5 -4.5t-54.5 -17.5t-36.5 -37t-14.5 -62h428v121zM227 0h-178v273q0 59 20.5 106t56.5 79.5t85 50t106 17.5h516v-526h-178v124h-428v-124z" />
    <glyph glyph-name="FL00C3h" unicode="&#xc3;" 
d="M537 639l61 74h114l-115 -132h-121l-61 74l-62 -74h-109l110 132h122zM655 385h-253q-38 0 -69.5 -4.5t-54.5 -17.5t-36.5 -37t-14.5 -62h428v121zM227 0h-178v273q0 59 20.5 106t56.5 79.5t85 50t106 17.5h516v-526h-178v124h-428v-124z" />
    <glyph glyph-name="FL00C4h" unicode="&#xc4;" 
d="M499 581v104h122v-104h-122zM311 581v104h122v-104h-122zM655 385h-253q-38 0 -69.5 -4.5t-54.5 -17.5t-36.5 -37t-14.5 -62h428v121zM227 0h-178v273q0 59 20.5 106t56.5 79.5t85 50t106 17.5h516v-526h-178v124h-428v-124z" />
    <glyph glyph-name="FL00C5h" unicode="&#xc5;" 
d="M406 685v-104h122v104h-122zM49 0h178v124h428v-124h178v526h-516q-57 0 -106 -17.5t-85 -50t-56.5 -79.5t-20.5 -106v-273zM402 385h253v-121h-428q1 38 14.5 62t36.5 37t54.5 17.5t69.5 4.5zM449 620v27h36v-27h-36z" />
    <glyph glyph-name="FL00C6h" unicode="&#xc6;" horiz-adv-x="1488" 
d="M1439 193h-606v-53h606v-140h-784v124h-428v-124h-178v273q0 59 20.5 106t56.5 79.5t85 50t106 17.5h1122v-141h-437q-54 0 -90.5 -10t-57.5 -41h585v-141zM402 385q-38 0 -69.5 -4.5t-54.5 -17.5t-36.5 -37t-14.5 -62h428v121h-253z" />
    <glyph glyph-name="FL00C7h" unicode="&#xc7;" horiz-adv-x="868" 
d="M49 168v191q0 48 18.5 80t51.5 51.5t80 27.5t104 8h516v-141h-506q-34 0 -44 -4.5t-10 -18.5v-199q0 -12 9.5 -17t44.5 -5h506v-141h-516q-37 0 -81.5 8t-82.5 27.5t-64 52t-26 80.5z" />
    <glyph glyph-name="FL00C8h" unicode="&#xc8;" horiz-adv-x="868" 
d="M437 712h-148l142 -132h98zM313 141q-30 0 -42 4.5t-12 17.5v8q0 11 6 15.5t23 6.5h297v141h-298q-18 2 -23 6.5t-5 14.5v7q0 13 11.5 18t42.5 5h506v141h-516q-57 0 -104 -8t-80 -27.5t-51.5 -51.5t-18.5 -80q0 -28 9 -50.5t25 -39.5q-16 -19 -25 -44.5t-9 -57.5
q0 -48 26 -80t64 -51.5t82.5 -27.5t81.5 -8h516v141h-506z" />
    <glyph glyph-name="FL00C9h" unicode="&#xc9;" horiz-adv-x="868" 
d="M381 581h98l142 132h-148zM313 141q-30 0 -42 4.5t-12 17.5v8q0 11 6 15.5t23 6.5h297v141h-298q-18 2 -23 6.5t-5 14.5v7q0 13 11.5 18t42.5 5h506v141h-516q-57 0 -104 -8t-80 -27.5t-51.5 -51.5t-18.5 -80q0 -28 9 -50.5t25 -39.5q-16 -19 -25 -44.5t-9 -57.5
q0 -48 26 -80t64 -51.5t82.5 -27.5t81.5 -8h516v141h-506z" />
    <glyph glyph-name="FL00CAh" unicode="&#xca;" horiz-adv-x="868" 
d="M443 652l61 -73h109l-110 131h-120l-110 -131h109zM313 141q-30 0 -42 4.5t-12 17.5v8q0 11 6 15.5t23 6.5h297v141h-298q-18 2 -23 6.5t-5 14.5v7q0 13 11.5 18t42.5 5h506v141h-516q-57 0 -104 -8t-80 -27.5t-51.5 -51.5t-18.5 -80q0 -28 9 -50.5t25 -39.5
q-16 -19 -25 -44.5t-9 -57.5q0 -48 26 -80t64 -51.5t82.5 -27.5t81.5 -8h516v141h-506z" />
    <glyph glyph-name="FL00CBh" unicode="&#xcb;" horiz-adv-x="868" 
d="M288 685v-104h122v104h-122zM476 685v-104h122v104h-122zM313 141q-30 0 -42 4.5t-12 17.5v8q0 11 6 15.5t23 6.5h297v141h-298q-18 2 -23 6.5t-5 14.5v7q0 13 11.5 18t42.5 5h506v141h-516q-57 0 -104 -8t-80 -27.5t-51.5 -51.5t-18.5 -80q0 -28 9 -50.5t25 -39.5
q-16 -19 -25 -44.5t-9 -57.5q0 -48 26 -80t64 -51.5t82.5 -27.5t81.5 -8h516v141h-506z" />
    <glyph glyph-name="FL00CCh" unicode="&#xcc;" horiz-adv-x="281" 
d="M49 0h179v527h-179v-527zM166 712h-148l142 -132h98z" />
    <glyph glyph-name="FL00CDh" unicode="&#xcd;" horiz-adv-x="281" 
d="M227 0h-179v527h179v-527zM110 712h148l-142 -132h-98z" />
    <glyph glyph-name="FL00CEh" unicode="&#xce;" horiz-adv-x="281" 
d="M49 0h179v527h-179v-527zM139 652l61 -73h109l-110 131h-120l-110 -131h109z" />
    <glyph glyph-name="FL00CFh" unicode="&#xcf;" horiz-adv-x="281" 
d="M228 0h-179v527h179v-527zM173 581v104h122v-104h-122zM-15 581v104h122v-104h-122z" />
    <glyph glyph-name="FL00D0h" unicode="&#xd0;" horiz-adv-x="1012" 
d="M520 192h-163v-51h259q39 0 70 5.5t53 20.5t34 40.5t12 66.5v112h-606v140h784v-273q0 -59 -20.5 -106t-56.5 -79.5t-85 -50t-106 -17.5h-516v192h-130v141h471v-141z" />
    <glyph glyph-name="FL00D1h" unicode="&#xd1;" 
d="M201 526q10 0 40.5 -11.5t72.5 -32t91 -48t96 -59.5t87.5 -66.5t66.5 -69.5v287h178v-526h-154q-27 32 -63 67.5t-77 71t-84.5 68t-85 59t-78 43.5t-64.5 21v-330h-178v526h152zM514 639l61 74h114l-115 -132h-121l-61 74l-62 -74h-109l110 132h122z" />
    <glyph glyph-name="FL00D2h" unicode="&#xd2;" 
d="M565 0h-516v273q0 59 24.5 106t63 79.5t86 50t94.5 17.5h516v-273q0 -59 -24.5 -106t-63 -79.5t-86.5 -50t-94 -17.5zM652 392h-241q-92 0 -135 -28q-41 -29 -41 -108v-123h241q91 0 135 29q41 29 41 108v122zM312 712h148l92 -132h-98z" />
    <glyph glyph-name="FL00D3h" unicode="&#xd3;" 
d="M227 252v-112h259q39 0 70 5.5t53 20.5t34 41t12 67v111h-259q-39 0 -70 -5.5t-53 -20.5t-34 -41t-12 -66zM565 0h-516v273q0 59 24.5 106t63 79.5t86 50t94.5 17.5h516v-273q0 -59 -24.5 -106t-63 -79.5t-86.5 -50t-94 -17.5zM502 581h-98l92 132h148z" />
    <glyph glyph-name="FL00D4h" unicode="&#xd4;" 
d="M227 252v-112h259q39 0 70 5.5t53 20.5t34 41t12 67v111h-259q-39 0 -70 -5.5t-53 -20.5t-34 -41t-12 -66zM565 0h-516v273q0 59 24.5 106t63 79.5t86 50t94.5 17.5h516v-273q0 -59 -24.5 -106t-63 -79.5t-86.5 -50t-94 -17.5zM527 579l-61 73l-61 -73h-109l110 131h120
l110 -131h-109z" />
    <glyph glyph-name="FL00D5h" unicode="&#xd5;" 
d="M227 252v-112h259q39 0 70 5.5t53 20.5t34 41t12 67v111h-259q-39 0 -70 -5.5t-53 -20.5t-34 -41t-12 -66zM565 0h-516v273q0 59 24.5 106t63 79.5t86 50t94.5 17.5h516v-273q0 -59 -24.5 -106t-63 -79.5t-86.5 -50t-94 -17.5zM537 639l61 74h114l-115 -132h-121l-61 74
l-62 -74h-109l110 132h122z" />
    <glyph glyph-name="FL00D6h" unicode="&#xd6;" 
d="M227 252v-112h259q39 0 70 5.5t53 20.5t34 41t12 67v111h-259q-39 0 -70 -5.5t-53 -20.5t-34 -41t-12 -66zM565 0h-516v273q0 59 24.5 106t63 79.5t86 50t94.5 17.5h516v-273q0 -59 -24.5 -106t-63 -79.5t-86.5 -50t-94 -17.5zM499 581v104h122v-104h-122zM311 581v104
h122v-104h-122z" />
    <glyph glyph-name="FL00D7h" unicode="&#xd7;" horiz-adv-x="482" 
d="M24 144l118 118l-117 116l100 100l116 -117l116 116l100 -99l-116 -116l117 -117l-100 -100l-117 117l-117 -117z" />
    <glyph glyph-name="FL00D8h" unicode="&#xd8;" 
d="M317 0h516v273q0 59 -24.5 106t-63 79.5t-86.5 50t-94 17.5h-516v-273q0 -59 24.5 -106t63 -79.5t86 -50t94.5 -17.5zM655 252v-112h-126v242q60 -5 93 -33t33 -97zM351 142q-58 5 -91 34t-33 98v110h124v-242z" />
    <glyph glyph-name="FL00D9h" unicode="&#xd9;" 
d="M288 712h148l92 -132h-98zM402 141h253v385h178v-526h-516q-57 0 -106 17.5t-85 50t-56.5 79.5t-20.5 106v273h178v-262q0 -38 13 -62t36.5 -37.5t55.5 -18.5t70 -5z" />
    <glyph glyph-name="FL00DAh" unicode="&#xda;" 
d="M480 581h-98l92 132h148zM402 141h253v385h178v-526h-516q-57 0 -106 17.5t-85 50t-56.5 79.5t-20.5 106v273h178v-262q0 -38 13 -62t36.5 -37.5t55.5 -18.5t70 -5z" />
    <glyph glyph-name="FL00DBh" unicode="&#xdb;" 
d="M503 579l-61 73l-61 -73h-109l110 131h120l110 -131h-109zM402 141h253v385h178v-526h-516q-57 0 -106 17.5t-85 50t-56.5 79.5t-20.5 106v273h178v-262q0 -38 13 -62t36.5 -37.5t55.5 -18.5t70 -5z" />
    <glyph glyph-name="FL00DCh" unicode="&#xdc;" 
d="M475 581v104h122v-104h-122zM287 581v104h122v-104h-122zM402 141h253v385h178v-526h-516q-57 0 -106 17.5t-85 50t-56.5 79.5t-20.5 106v273h178v-262q0 -38 13 -62t36.5 -37.5t55.5 -18.5t70 -5z" />
    <glyph glyph-name="FL00DDh" unicode="&#xdd;" 
d="M480 320q38 0 70 5t55.5 18.5t36.5 38t13 62.5v82h178v-91q0 -59 -20.5 -106t-56.5 -79.5t-85 -50t-106 -17.5h-36v-182h-178v182h-34q-57 0 -106 17.5t-85 50t-56.5 79.5t-20.5 106v91h178v-82q0 -38 13 -62.5t36.5 -38t55.5 -18.5t70 -5h78zM460 581h-98l92 132h148z
" />
    <glyph glyph-name="FL00DEh" unicode="&#xde;" 
d="M227 314v-314h-178v526h178v-71h606v-161q0 -56 -22.5 -99t-60 -72.5t-85.5 -45t-100 -15.5h-246v141h167q42 0 73.5 2t53 13t32 33t10.5 63h-428z" />
    <glyph glyph-name="FL00DFh" unicode="&#xdf;" 
d="M227 -156h-178v682h516q57 0 106 -17.5t85 -50t56.5 -79.5t20.5 -106v-273h-554v140h376v53h-376v141h355q-21 31 -57.5 41t-90.5 10h-259v-541z" />
    <glyph glyph-name="FL00E0h" unicode="&#xe0;" 
d="M312 712h148l92 -132h-98zM655 385h-253q-38 0 -69.5 -4.5t-54.5 -17.5t-36.5 -37t-14.5 -62h428v121zM227 0h-178v273q0 59 20.5 106t56.5 79.5t85 50t106 17.5h516v-526h-178v124h-428v-124z" />
    <glyph glyph-name="FL00E1h" unicode="&#xe1;" 
d="M502 581h-98l92 132h148zM655 385h-253q-38 0 -69.5 -4.5t-54.5 -17.5t-36.5 -37t-14.5 -62h428v121zM227 0h-178v273q0 59 20.5 106t56.5 79.5t85 50t106 17.5h516v-526h-178v124h-428v-124z" />
    <glyph glyph-name="FL00E2h" unicode="&#xe2;" 
d="M527 579l-61 73l-61 -73h-109l110 131h120l110 -131h-109zM655 385h-253q-38 0 -69.5 -4.5t-54.5 -17.5t-36.5 -37t-14.5 -62h428v121zM227 0h-178v273q0 59 20.5 106t56.5 79.5t85 50t106 17.5h516v-526h-178v124h-428v-124z" />
    <glyph glyph-name="FL00E3h" unicode="&#xe3;" 
d="M537 639l61 74h114l-115 -132h-121l-61 74l-62 -74h-109l110 132h122zM655 385h-253q-38 0 -69.5 -4.5t-54.5 -17.5t-36.5 -37t-14.5 -62h428v121zM227 0h-178v273q0 59 20.5 106t56.5 79.5t85 50t106 17.5h516v-526h-178v124h-428v-124z" />
    <glyph glyph-name="FL00E4h" unicode="&#xe4;" 
d="M499 581v104h122v-104h-122zM311 581v104h122v-104h-122zM655 385h-253q-38 0 -69.5 -4.5t-54.5 -17.5t-36.5 -37t-14.5 -62h428v121zM227 0h-178v273q0 59 20.5 106t56.5 79.5t85 50t106 17.5h516v-526h-178v124h-428v-124z" />
    <glyph glyph-name="FL00E5h" unicode="&#xe5;" 
d="M406 685v-104h122v104h-122zM49 0h178v124h428v-124h178v526h-516q-57 0 -106 -17.5t-85 -50t-56.5 -79.5t-20.5 -106v-273zM402 385h253v-121h-428q1 38 14.5 62t36.5 37t54.5 17.5t69.5 4.5zM449 620v27h36v-27h-36z" />
    <glyph glyph-name="FL00E6h" unicode="&#xe6;" horiz-adv-x="1488" 
d="M1439 193h-606v-53h606v-140h-784v124h-428v-124h-178v273q0 59 20.5 106t56.5 79.5t85 50t106 17.5h1122v-141h-437q-54 0 -90.5 -10t-57.5 -41h585v-141zM402 385q-38 0 -69.5 -4.5t-54.5 -17.5t-36.5 -37t-14.5 -62h428v121h-253z" />
    <glyph glyph-name="FL00E7h" unicode="&#xe7;" 
d="M574 -164h-239v112h127v52h-413v273q0 59 20.5 106t56.5 79.5t85 50t106 17.5h516v-141h-437q-39 0 -70 -5.5t-53 -20.5t-34 -41t-12 -66v-112h606v-140h-259v-164z" />
    <glyph glyph-name="FL00E8h" unicode="&#xe8;" 
d="M460 712h-148l142 -132h98zM833 193v141h-585q21 31 57.5 41t90.5 10h437v141h-517q-57 0 -106 -17.5t-84.5 -50t-56 -79.5t-20.5 -106v-273h784v140h-606v53h606z" />
    <glyph glyph-name="FL00E9h" unicode="&#xe9;" 
d="M404 581h98l142 132h-148zM833 193v141h-585q21 31 57.5 41t90.5 10h437v141h-517q-57 0 -106 -17.5t-84.5 -50t-56 -79.5t-20.5 -106v-273h784v140h-606v53h606z" />
    <glyph glyph-name="FL00EAh" unicode="&#xea;" 
d="M466 652l61 -73h109l-110 131h-120l-110 -131h109zM833 193v141h-585q21 31 57.5 41t90.5 10h437v141h-517q-57 0 -106 -17.5t-84.5 -50t-56 -79.5t-20.5 -106v-273h784v140h-606v53h606z" />
    <glyph glyph-name="FL00EBh" unicode="&#xeb;" 
d="M311 685v-104h122v104h-122zM499 685v-104h122v104h-122zM833 193v141h-585q21 31 57.5 41t90.5 10h437v141h-517q-57 0 -106 -17.5t-84.5 -50t-56 -79.5t-20.5 -106v-273h784v140h-606v53h606z" />
    <glyph glyph-name="FL00EEh" unicode="&#xec;" horiz-adv-x="281" 
d="M49 0h179v527h-179v-527zM166 712h-148l142 -132h98z" />
    <glyph glyph-name="FL00EDh" unicode="&#xed;" horiz-adv-x="281" 
d="M227 0h-179v527h179v-527zM110 712h148l-142 -132h-98z" />
    <glyph glyph-name="FL00F7h" unicode="&#xee;" horiz-adv-x="281" 
d="M49 0h179v527h-179v-527zM139 652l61 -73h109l-110 131h-120l-110 -131h109z" />
    <glyph glyph-name="FL00EFh" unicode="&#xef;" horiz-adv-x="281" 
d="M228 0h-179v527h179v-527zM173 581v104h122v-104h-122zM-15 581v104h122v-104h-122z" />
    <glyph glyph-name="FL00F0h" unicode="&#xf0;" 
d="M833 0v273q0 59 -24.5 106t-63.5 79.5t-87 50t-95 17.5h-514v-141h437q52 0 90.5 -10.5t58.5 -40.5h-586v-81q0 -59 25 -106t64 -79.5t87 -50t94 -17.5h514zM247 193h408v-52h-259q-52 0 -90.5 10.5t-58.5 41.5z" />
    <glyph glyph-name="FL00F1h" unicode="&#xf1;" 
d="M201 526q10 0 40.5 -11.5t72.5 -32t91 -48t96 -59.5t87.5 -66.5t66.5 -69.5v287h178v-526h-154q-27 32 -63 67.5t-77 71t-84.5 68t-85 59t-78 43.5t-64.5 21v-330h-178v526h152zM514 639l61 74h114l-115 -132h-121l-61 74l-62 -74h-109l110 132h122z" />
    <glyph glyph-name="FL00F2h" unicode="&#xf2;" 
d="M565 0h-516v273q0 59 24.5 106t63 79.5t86 50t94.5 17.5h516v-273q0 -59 -24.5 -106t-63 -79.5t-86.5 -50t-94 -17.5zM652 392h-241q-92 0 -135 -28q-41 -29 -41 -108v-123h241q91 0 135 29q41 29 41 108v122zM312 712h148l92 -132h-98z" />
    <glyph glyph-name="FL00F3h" unicode="&#xf3;" 
d="M227 252v-112h259q39 0 70 5.5t53 20.5t34 41t12 67v111h-259q-39 0 -70 -5.5t-53 -20.5t-34 -41t-12 -66zM565 0h-516v273q0 59 24.5 106t63 79.5t86 50t94.5 17.5h516v-273q0 -59 -24.5 -106t-63 -79.5t-86.5 -50t-94 -17.5zM502 581h-98l92 132h148z" />
    <glyph glyph-name="FL00F4h" unicode="&#xf4;" 
d="M227 252v-112h259q39 0 70 5.5t53 20.5t34 41t12 67v111h-259q-39 0 -70 -5.5t-53 -20.5t-34 -41t-12 -66zM565 0h-516v273q0 59 24.5 106t63 79.5t86 50t94.5 17.5h516v-273q0 -59 -24.5 -106t-63 -79.5t-86.5 -50t-94 -17.5zM527 579l-61 73l-61 -73h-109l110 131h120
l110 -131h-109z" />
    <glyph glyph-name="FL00F5h" unicode="&#xf5;" 
d="M227 252v-112h259q39 0 70 5.5t53 20.5t34 41t12 67v111h-259q-39 0 -70 -5.5t-53 -20.5t-34 -41t-12 -66zM565 0h-516v273q0 59 24.5 106t63 79.5t86 50t94.5 17.5h516v-273q0 -59 -24.5 -106t-63 -79.5t-86.5 -50t-94 -17.5zM537 639l61 74h114l-115 -132h-121l-61 74
l-62 -74h-109l110 132h122z" />
    <glyph glyph-name="FL00F6h" unicode="&#xf6;" 
d="M227 252v-112h259q39 0 70 5.5t53 20.5t34 41t12 67v111h-259q-39 0 -70 -5.5t-53 -20.5t-34 -41t-12 -66zM565 0h-516v273q0 59 24.5 106t63 79.5t86 50t94.5 17.5h516v-273q0 -59 -24.5 -106t-63 -79.5t-86.5 -50t-94 -17.5zM499 581v104h122v-104h-122zM311 581v104
h122v-104h-122z" />
    <glyph glyph-name="FL0100h" unicode="&#xf7;" horiz-adv-x="657" 
d="M608 192v141h-559v-141h559zM415 158h-174v-141h174v141zM415 509h-174v-141h174v141z" />
    <glyph glyph-name="FL00F8h" unicode="&#xf8;" 
d="M565 0h-516v273q0 59 24.5 106t63 79.5t86 50t94.5 17.5h516v-273q0 -59 -24.5 -106t-63 -79.5t-86.5 -50t-94 -17.5zM227 252v-112h126v242q-60 -5 -93 -33t-33 -97zM531 142q58 5 91 34t33 98v110h-124v-242z" />
    <glyph glyph-name="FL00F9h" unicode="&#xf9;" 
d="M288 712h148l92 -132h-98zM402 141h253v385h178v-526h-516q-57 0 -106 17.5t-85 50t-56.5 79.5t-20.5 106v273h178v-262q0 -38 13 -62t36.5 -37.5t55.5 -18.5t70 -5z" />
    <glyph glyph-name="FL00FAh" unicode="&#xfa;" 
d="M478 581h-98l92 132h148zM402 141h253v385h178v-526h-516q-57 0 -106 17.5t-85 50t-56.5 79.5t-20.5 106v273h178v-262q0 -38 13 -62t36.5 -37.5t55.5 -18.5t70 -5z" />
    <glyph glyph-name="FL00FBh" unicode="&#xfb;" 
d="M501 579l-61 73l-61 -73h-109l110 131h120l110 -131h-109zM402 141h253v385h178v-526h-516q-57 0 -106 17.5t-85 50t-56.5 79.5t-20.5 106v273h178v-262q0 -38 13 -62t36.5 -37.5t55.5 -18.5t70 -5z" />
    <glyph glyph-name="FL00FCh" unicode="&#xfc;" 
d="M473 581v104h122v-104h-122zM285 581v104h122v-104h-122zM402 141h253v385h178v-526h-516q-57 0 -106 17.5t-85 50t-56.5 79.5t-20.5 106v273h178v-262q0 -38 13 -62t36.5 -37.5t55.5 -18.5t70 -5z" />
    <glyph glyph-name="FL00FDh" unicode="&#xfd;" 
d="M480 320q38 0 70 5t55.5 18.5t36.5 38t13 62.5v82h178v-91q0 -59 -20.5 -106t-56.5 -79.5t-85 -50t-106 -17.5h-36v-182h-178v182h-34q-57 0 -106 17.5t-85 50t-56.5 79.5t-20.5 106v91h178v-82q0 -38 13 -62.5t36.5 -38t55.5 -18.5t70 -5h78zM460 581h-98l92 132h148z
" />
    <glyph glyph-name="FL00FEh" unicode="&#xfe;" 
d="M227 314v-314h-178v526h178v-71h606v-161q0 -56 -22.5 -99t-60 -72.5t-85.5 -45t-100 -15.5h-246v141h167q42 0 73.5 2t53 13t32 33t10.5 63h-428z" />
    <glyph glyph-name="FL00FFh" unicode="&#xff;" 
d="M480 320q38 0 70 5t55.5 18.5t36.5 38t13 62.5v82h178v-91q0 -59 -20.5 -106t-56.5 -79.5t-85 -50t-106 -17.5h-36v-182h-178v182h-34q-57 0 -106 17.5t-85 50t-56.5 79.5t-20.5 106v91h178v-82q0 -38 13 -62.5t36.5 -38t55.5 -18.5t70 -5h78zM473 581v104h122v-104h-122
zM285 581v104h122v-104h-122z" />
    <glyph glyph-name="FL0152h" unicode="&#x152;" horiz-adv-x="1488" 
d="M49 0v273q0 59 20.5 106t56.5 79.5t85 50t106 17.5h1122v-141h-437q-54 0 -90.5 -10t-57.5 -41h585v-141h-606v-53h606v-140h-1390zM227 140h428v133q0 54 23 112h-282q-39 0 -70 -5.5t-53 -20.5t-34 -41t-12 -66v-112z" />
    <glyph glyph-name="FL0153h" unicode="&#x153;" horiz-adv-x="1488" 
d="M49 0v273q0 59 20.5 106t56.5 79.5t85 50t106 17.5h1122v-141h-437q-54 0 -90.5 -10t-57.5 -41h585v-141h-606v-53h606v-140h-1390zM227 140h428v133q0 54 23 112h-282q-39 0 -70 -5.5t-53 -20.5t-34 -41t-12 -66v-112z" />
    <glyph glyph-name="FL0160h" unicode="&#x160;" 
d="M49 273v-80h586q-20 -31 -58.5 -41.5t-90.5 -10.5h-437v-141h514q46 0 94 17.5t87 50t64 79.5t25 106v81h-586q20 30 58.5 40.5t90.5 10.5h437v141h-514q-47 0 -95 -17.5t-87 -50t-63.5 -79.5t-24.5 -106zM466 636l-61 73h-109l110 -131h120l110 131h-109z" />
    <glyph glyph-name="FL0161h" unicode="&#x161;" 
d="M49 273v-80h586q-20 -31 -58.5 -41.5t-90.5 -10.5h-437v-141h514q46 0 94 17.5t87 50t64 79.5t25 106v81h-586q20 30 58.5 40.5t90.5 10.5h437v141h-514q-47 0 -95 -17.5t-87 -50t-63.5 -79.5t-24.5 -106zM466 636l-61 73h-109l110 -131h120l110 131h-109z" />
    <glyph glyph-name="FL0178h" unicode="&#x178;" 
d="M480 320q38 0 70 5t55.5 18.5t36.5 38t13 62.5v82h178v-91q0 -59 -20.5 -106t-56.5 -79.5t-85 -50t-106 -17.5h-36v-182h-178v182h-34q-57 0 -106 17.5t-85 50t-56.5 79.5t-20.5 106v91h178v-82q0 -38 13 -62.5t36.5 -38t55.5 -18.5t70 -5h78zM473 581v104h122v-104h-122
zM285 581v104h122v-104h-122z" />
    <glyph glyph-name="FL017Dh" unicode="&#x17d;" 
d="M833 273v-80h-586q20 -31 58.5 -41.5t90.5 -10.5h437v-141h-514q-46 0 -94 17.5t-87 50t-64 79.5t-25 106v81h586q-20 30 -58.5 40.5t-90.5 10.5h-437v141h514q47 0 95 -17.5t87 -50t63.5 -79.5t24.5 -106zM416 636l61 73h109l-110 -131h-120l-110 131h109z" />
    <glyph glyph-name="FL017Eh" unicode="&#x17e;" 
d="M833 193h-586q20 -31 58.5 -41.5t90.5 -10.5h437v-141h-514q-47 0 -95 17.5t-87 50t-63.5 79.5t-24.5 106v81h586v51h-586v141h784v-333zM379 709l61 -73l61 73h109l-110 -131h-120l-110 131h109z" />
    <glyph glyph-name="onequarter" unicode="&#x192;" 
d="M49 0h784v273q0 59 -20.5 106t-56.5 79.5t-85 50t-106 17.5h-516v-526zM227 140v53h428v-53h-428zM227 385h259q54 0 90.5 -10t57.5 -41h-407v51z" />
    <glyph glyph-name="FL02C6h" unicode="&#x2c6;" horiz-adv-x="388" 
d="M194 527l61 -73h109l-110 131h-120l-110 -131h109z" />
    <glyph glyph-name="FL02DCh" unicode="&#x2dc;" horiz-adv-x="516" 
d="M317 512l61 74h114l-115 -132h-121l-61 74l-62 -74h-109l110 132h122z" />
    <glyph glyph-name="FL2013h" unicode="&#x2013;" horiz-adv-x="569" 
d="M520 192v141h-471v-141h471z" />
    <glyph glyph-name="FL2014h" unicode="&#x2014;" horiz-adv-x="657" 
d="M608 192v141h-559v-141h559z" />
    <glyph glyph-name="FL2018h" unicode="&#x2018;" horiz-adv-x="276" 
d="M49 292h178v234q-45 0 -78.5 -9t-55.5 -23t-33 -31.5t-11 -35.5v-135z" />
    <glyph glyph-name="FL2019h" unicode="&#x2019;" horiz-adv-x="276" 
d="M227 526h-178v-234q45 0 78.5 9t55.5 23t33 31.5t11 35.5v135z" />
    <glyph glyph-name="FL201Ah" unicode="&#x201a;" horiz-adv-x="276" 
d="M227 141h-178v-234q45 0 78.5 9t55.5 23t33 31.5t11 35.5v135z" />
    <glyph glyph-name="FL201Ch" unicode="&#x201c;" horiz-adv-x="500" 
d="M49 292h178v234q-45 0 -78.5 -9t-55.5 -23t-33 -31.5t-11 -35.5v-135zM273 292h178v234q-45 0 -78.5 -9t-55.5 -23t-33 -31.5t-11 -35.5v-135z" />
    <glyph glyph-name="FL201Dh" unicode="&#x201d;" horiz-adv-x="500" 
d="M451 526h-178v-234q45 0 78.5 9t55.5 23t33 31.5t11 35.5v135zM227 526h-178v-234q45 0 78.5 9t55.5 23t33 31.5t11 35.5v135z" />
    <glyph glyph-name="FL201Eh" unicode="&#x201e;" horiz-adv-x="493" 
d="M444 141h-178v-234q45 0 78.5 9t55.5 23t33 31.5t11 35.5v135zM227 141h-178v-234q45 0 78.5 9t55.5 23t33 31.5t11 35.5v135z" />
    <glyph glyph-name="FL2020h" unicode="&#x2020;" horiz-adv-x="612" 
d="M563 434v-141h-168v-293h-178v293h-168v141h168v92h178v-92h168z" />
    <glyph glyph-name="FL2021h" unicode="&#x2021;" horiz-adv-x="612" 
d="M563 434v-141h-168v-61h168v-141h-168v-91h-178v91h-168v141h168v61h-168v141h168v92h178v-92h168z" />
    <glyph glyph-name="FL2022h" unicode="&#x2022;" horiz-adv-x="526" 
d="M49 252q0 40 12 66t34 41t53 20.5t70 5.5h259v-111q0 -41 -12 -67t-34 -41t-53 -20.5t-70 -5.5h-259v112z" />
    <glyph glyph-name="FL2026h" unicode="&#x2026;" horiz-adv-x="768" 
d="M719 141h-178v-141h178v141zM473 141h-178v-141h178v141zM227 141h-178v-141h178v141z" />
    <glyph glyph-name="FL2030h" unicode="&#x2030;" horiz-adv-x="1423" 
d="M754 526l-332 -526h-170l333 526h169zM156 382v-32h103q19 0 33.5 1t23.5 6t13.5 16t4.5 32v31h-104q-19 0 -33 -1t-23 -6t-13.5 -16t-4.5 -31zM307 262h-258v136q0 30 12 53.5t31.5 40t43.5 25t47 8.5h258v-137q0 -29 -12 -52.5t-31.5 -40t-43.5 -25t-47 -8.5zM674 120
v-32h103q19 0 33.5 1t23.5 6t13.5 16t4.5 32v31h-104q-19 0 -33 -1t-23 -6t-13.5 -16t-4.5 -31zM825 0h-258v136q0 30 12 53.5t31.5 40t43.5 25t47 8.5h258v-137q0 -29 -12 -52.5t-31.5 -40t-43.5 -25t-47 -8.5zM1089 120v-32h103q19 0 33.5 1t23.5 6t13.5 16t4.5 32v31
h-104q-19 0 -33 -1t-23 -6t-13.5 -16t-4.5 -31zM1240 0h-258v136q0 30 12 53.5t31.5 40t43.5 25t47 8.5h258v-137q0 -29 -12 -52.5t-31.5 -40t-43.5 -25t-47 -8.5z" />
    <glyph glyph-name="FL2039h" unicode="&#x2039;" horiz-adv-x="229" 
d="M180 201v-109l-131 110v120l131 110v-109l-74 -61z" />
    <glyph glyph-name="FL203Ah" unicode="&#x203a;" horiz-adv-x="229" 
d="M49 201v-109l131 110v120l-131 110v-109l74 -61z" />
    <glyph glyph-name="FL20ACh" unicode="&#x20ac;" horiz-adv-x="1026" 
d="M49 279v77h156q24 81 92 125.5t164 44.5h516v-141h-437q-42 0 -73.5 -6t-54.5 -23h331v-77h-371q-1 -1 -1 -13v-13h372v-77h-372v-36h606v-140h-784v176h-144v77h144v26h-144z" />
    <glyph glyph-name="FL2122h" unicode="&#x2122;" horiz-adv-x="359" 
d="M95 564v-113h21v113h46v21h-113v-21h46zM184 581v-130h14v87l7 7l32 -86q2 -6 4 -7t4 -1h4q2 0 4.5 2.5t7.5 12t12 29t18 53.5l5 -10v-87h14v134h-5q-7 0 -11 -1.5t-8 -6.5t-9.5 -15t-15.5 -26q-1 -1 -1 -5q-3 -13 -6 -21.5t-8 -19.5l-18 58q-4 13 -16 25.5t-16 12.5
q-2 0 -2.5 -0.5l-0.5 -0.5l3 -1q0 -2 -6 -2q-2 0 -3.5 -0.5t-2.5 -0.5z" />
    </font>
</defs>
</svg>
